<?xml version="1.0" standalone="no"?>
<!--
  - EagerORM - A predictable object-relation mapper
  - Copyright (C) 2026  Dimitrije Andžić <dimitrije.andzic@gmail.com>
  -
  - This program is free software: you can redistribute it and/or modify
  - it under the terms of the GNU General Public License as published by
  - the Free Software Foundation, either version 3 of the License, or
  - (at your option) any later version.
  -
  - This program is distributed in the hope that it will be useful,
  - but WITHOUT ANY WARRANTY; without even the implied warranty of
  - MERCHANTABILITY or FITNESS FOR A PARTICULAR PURPOSE.  See the
  - GNU General Public License for more details.
  -
  - You should have received a copy of the GNU General Public License
  - along with this program.  If not, see <https://www.gnu.org/licenses/>.
  -->

<!DOCTYPE svg PUBLIC "-//W3C//DTD SVG 20010904//EN"
 "http://www.w3.org/TR/2001/REC-SVG-20010904/DTD/svg10.dtd">
<svg version="1.0" xmlns="http://www.w3.org/2000/svg"
 width="100pt" height="30pt" viewBox="0 0 730.000000 137.555581"
 preserveAspectRatio="xMidYMid meet">
<metadata>
Created by potrace 1.12, written by Peter Selinger 2001-2015
</metadata>
<g transform="translate(-155.000000,588.987460) scale(0.100000,-0.100000)"
fill="#000000" stroke="none">
<path d="M1963 5784 l-193 -106 0 -115 0 -114 82 3 82 3 1 54 c1 63 -2 61 147
136 l87 45 118 -61 c65 -34 132 -69 148 -80 30 -18 31 -18 98 8 l67 27 0 40 0
41 -133 69 c-72 38 -167 89 -211 113 -43 24 -84 43 -90 43 -6 0 -98 -48 -203
-106z"/>
<path d="M6433 5619 c-105 -20 -195 -81 -253 -170 -140 -217 -74 -521 136
-631 123 -65 235 -71 359 -21 275 112 342 518 119 722 -100 91 -228 127 -361
100z m222 -121 c65 -34 97 -69 132 -143 25 -53 28 -71 28 -160 0 -87 -3 -107
-26 -155 -55 -116 -152 -180 -275 -180 -89 0 -155 31 -218 101 -60 67 -81 130
-80 244 1 160 67 261 203 312 57 21 175 12 236 -19z"/>
<path d="M3030 5195 l0 -415 270 0 270 0 0 45 0 45 -220 0 -220 0 0 145 0 145
205 0 205 0 0 45 0 45 -202 2 -203 3 -3 133 -3 132 221 0 220 0 0 45 0 45
-270 0 -270 0 0 -415z"/>
<path d="M7080 5195 l0 -415 50 0 50 0 0 165 0 166 82 -3 82 -3 97 -160 97
-160 63 -3 62 -3 -15 23 c-71 111 -190 309 -187 312 2 2 24 13 48 26 88 44
130 116 131 221 0 114 -58 196 -167 235 -26 9 -92 13 -215 14 l-178 0 0 -415z
m342 315 c55 -16 93 -53 108 -104 16 -57 7 -107 -27 -147 -41 -49 -78 -59
-208 -59 l-115 0 0 160 0 160 103 0 c56 0 119 -5 139 -10z"/>
<path d="M7790 5195 l0 -415 50 0 50 0 2 330 3 330 110 -213 c149 -290 144
-282 182 -285 l32 -3 130 258 130 258 0 -337 1 -338 50 0 50 0 0 415 0 415
-65 0 -65 0 -130 -260 c-72 -143 -132 -260 -134 -260 -3 0 -65 117 -138 260
l-133 260 -62 0 -63 0 0 -415z"/>
<path d="M3835 5386 c-41 -13 -125 -64 -125 -75 1 -3 11 -19 24 -35 l23 -28
40 26 c22 15 67 32 99 38 53 10 65 8 106 -10 59 -26 78 -56 85 -131 l6 -60
-62 25 c-67 27 -165 34 -216 14 -107 -41 -154 -142 -120 -257 25 -86 88 -123
208 -123 66 0 120 19 160 57 l27 27 0 -38 0 -37 48 3 47 3 -3 230 c-3 205 -6
235 -24 272 -22 48 -57 76 -119 98 -50 18 -149 18 -204 1z m182 -311 c55 -23
73 -44 73 -83 0 -76 -77 -152 -156 -152 -88 0 -143 42 -151 114 -6 53 11 86
60 116 39 24 122 26 174 5z"/>
<path d="M4480 5379 c-58 -26 -96 -63 -125 -120 -94 -184 -13 -424 159 -470
81 -22 178 2 239 59 l27 26 0 -57 c0 -118 -59 -187 -168 -195 -74 -5 -134 11
-178 50 -33 30 -35 30 -49 12 -36 -48 -40 -63 -19 -78 79 -59 202 -86 296 -67
67 14 143 62 174 109 38 56 44 117 44 437 l0 305 -51 0 -51 0 4 -45 3 -44 -35
34 c-19 19 -52 41 -72 50 -53 21 -143 19 -198 -6z m215 -92 c62 -34 85 -90 85
-201 0 -76 -4 -95 -24 -130 -50 -85 -170 -114 -248 -60 -125 87 -125 306 1
391 46 31 130 31 186 0z"/>
<path d="M5202 5387 c-43 -14 -128 -90 -151 -136 -62 -123 -47 -280 36 -389
15 -21 51 -46 89 -64 109 -51 255 -36 350 37 19 14 34 30 34 35 0 5 -13 18
-29 29 l-29 21 -53 -32 c-47 -30 -60 -33 -130 -33 -70 0 -81 3 -120 30 -46 33
-77 82 -86 139 l-6 36 247 0 246 0 0 39 c0 21 -9 69 -21 106 -26 84 -89 153
-164 178 -54 19 -161 21 -213 4z m199 -90 c34 -17 50 -35 72 -77 48 -94 56
-90 -169 -90 l-196 0 6 25 c18 71 61 129 111 151 48 21 126 17 176 -9z"/>
<path d="M5914 5381 c-22 -10 -53 -34 -67 -52 l-27 -34 0 48 0 47 -45 0 -45 0
0 -305 0 -305 45 0 45 0 0 153 c1 250 9 289 70 341 31 25 56 31 113 27 26 -2
27 -1 27 48 l0 51 -37 0 c-21 0 -56 -9 -79 -19z"/>
<path d="M1628 5320 c-55 -30 -78 -65 -78 -120 0 -59 21 -88 89 -120 l52 -24
47 25 c47 24 47 24 452 29 l405 5 3 88 3 87 -403 0 -403 0 -44 25 c-51 30 -74
31 -123 5z"/>
<path d="M8743 4952 c-32 -5 -63 -49 -63 -89 0 -44 37 -83 80 -83 37 0 90 47
90 80 0 56 -52 101 -107 92z m57 -22 c24 -13 39 -59 29 -87 -4 -12 -19 -29
-34 -39 -43 -28 -105 9 -105 64 0 52 63 87 110 62z"/>
<path d="M8726 4904 c-8 -21 -8 -58 1 -81 6 -15 8 -13 13 12 l5 30 26 -26 26
-25 -1 43 c-1 44 -15 63 -47 63 -9 0 -20 -7 -23 -16z m59 -19 c0 -5 -10 -11
-22 -13 -16 -2 -23 2 -23 13 0 11 7 15 23 13 12 -2 22 -7 22 -13z"/>
<path d="M1772 4834 l3 -117 193 -104 c114 -61 201 -102 210 -99 10 3 69 34
133 69 64 34 155 83 203 107 l86 45 0 40 0 40 -68 28 -68 28 -79 -46 c-44 -25
-112 -62 -151 -82 l-71 -37 -113 61 c-94 50 -114 65 -115 84 -1 13 -2 41 -3
62 l-2 37 -80 0 -81 0 3 -116z"/>
</g>
</svg>
